<?xml version="1.0" ?><svg width="64px" height="64px" viewBox="0 0 64 64" xmlns="http://www.w3.org/2000/svg"><defs><style>.cls-1{fill:#efc89d;}.cls-2{fill:#ebb87f;}.cls-3{fill:#d0e1e8;}.cls-4{fill:#e5936b;}.cls-5{fill:#e17c46;}.cls-6{fill:#e0e9ee;}.cls-7{fill:#f0f4f7;}.cls-8{fill:#252b48;}</style></defs><g id="Bed"><path class="cls-1" d="M47,14.61s-4.39-2.7-15-2.7-15,2.7-15,2.7l-1.79,3,.41,15.24,30.67,1.21L50.2,28Z" id="path113648-9"/><path class="cls-2" d="M43.81,13.36V34l2.48.1,3.18-4.94V25L47,14.61A14.86,14.86,0,0,0,43.81,13.36Z" id="path153587"/><path class="cls-3" d="M27.78,30.06l-1.42-.93,1.42-.94a2.28,2.28,0,0,1,2.29-2.29h3.86a2.28,2.28,0,0,1,2.29,2.29l1.42.94-1.42.93-3.87,1.53Z" id="path113030-6"/><path class="cls-4" d="M52.67,35.82V14.61a2.84,2.84,0,0,0-5.67,0v21.7Z" id="rect113384-5"/><path class="cls-4" d="M17,36.31V14.61a2.84,2.84,0,0,0-5.67,0V35.82Z" id="path113507-6"/><path class="cls-5" d="M52.67,35.82V14.61a2.84,2.84,0,0,0-4.26-2.45,2.84,2.84,0,0,1,1.41,2.45V35.82Z" id="path158412"/><path class="cls-5" d="M17,36.31V14.61a2.82,2.82,0,0,0-2.83-2.83,2.88,2.88,0,0,0-1.43.38,2.84,2.84,0,0,1,1.41,2.45V36.07Z" id="path155992"/><path class="cls-6" d="M16,30.06V27.45a3.18,3.18,0,0,1,3.19-3.2h5.41a3.19,3.19,0,0,1,3.2,3.2v2.61l-5.9,2.08Z" id="path112467-4"/><path class="cls-6" d="M36.22,30.06V27.45a3.19,3.19,0,0,1,3.2-3.2h5.41A3.18,3.18,0,0,1,48,27.45v2.61l-5.9,2.08Z" id="path113028-7"/><path class="cls-7" d="M11.33,38.51v-3.8A4.64,4.64,0,0,1,16,30.06H48a4.64,4.64,0,0,1,4.65,4.65v3.8L32,41.88Z" id="rect111778-5"/><path class="cls-6" d="M52.67,38.51v-3.8A4.64,4.64,0,0,0,48,30.06H44a4.64,4.64,0,0,1,4.65,4.65v3.8Z" id="path126455"/><path class="cls-1" d="M10.48,38.51A2.47,2.47,0,0,0,8,41v9.49a1.74,1.74,0,0,0,1.74,1.74c1,0,1.34-.87,1.74-1.74l2-4.34h37l2,4.34c.4.87.77,1.74,1.74,1.74A1.74,1.74,0,0,0,56,50.48V41a2.47,2.47,0,0,0-2.48-2.48Z" id="path13490-6-5-8-9-5"/><path class="cls-2" d="M49.53,38.51A2.47,2.47,0,0,1,52,41v8.38l.52,1.11c.4.87.78,1.74,1.74,1.74A1.74,1.74,0,0,0,56,50.48V41a2.47,2.47,0,0,0-2.47-2.48Z" id="path131276"/><path class="cls-8" d="M53.67,37.52V34.71h0V14.61a3.83,3.83,0,0,0-7.38-1.44c-2-.84-6.53-2.26-14.29-2.26s-12.29,1.42-14.29,2.26a3.83,3.83,0,0,0-7.38,1.44v20.1h0v2.81A3.48,3.48,0,0,0,7,41v9.49a2.74,2.74,0,0,0,2.74,2.74c1.57,0,2.2-1.34,2.65-2.32l1.76-3.76h35.7L51.65,51c.41.89,1,2.23,2.61,2.23A2.74,2.74,0,0,0,57,50.48V41A3.48,3.48,0,0,0,53.67,37.52Zm-41.34,0v-2.8A3.66,3.66,0,0,1,16,31.06H48a3.66,3.66,0,0,1,3.65,3.65v2.8ZM17,27.45a2.19,2.19,0,0,1,2.19-2.2h5.41a2.2,2.2,0,0,1,2.2,2.2v1.61H17Zm13.09-.55h3.86a1.29,1.29,0,0,1,1.29,1.29v.87H28.78v-.87A1.29,1.29,0,0,1,30.07,26.9Zm7.15.55a2.2,2.2,0,0,1,2.2-2.2h5.41A2.19,2.19,0,0,1,47,27.45v1.61h-9.8ZM49.83,12.78a1.83,1.83,0,0,1,1.84,1.83v15.8A5.62,5.62,0,0,0,49,29.16V27.45a4.18,4.18,0,0,0-1-2.72V14.61A1.83,1.83,0,0,1,49.83,12.78ZM46,15.22v8.22a3.77,3.77,0,0,0-1.17-.19H39.42a4.19,4.19,0,0,0-3.67,2.2,3.33,3.33,0,0,0-1.82-.55H30.07a3.33,3.33,0,0,0-1.82.55,4.19,4.19,0,0,0-3.67-2.2H19.17a3.77,3.77,0,0,0-1.17.19V15.22c1.37-.63,5.77-2.31,14-2.31S44.63,14.59,46,15.22ZM14.17,12.78A1.83,1.83,0,0,1,16,14.61V24.73a4.18,4.18,0,0,0-1,2.72v1.71a5.62,5.62,0,0,0-2.65,1.25V14.61A1.83,1.83,0,0,1,14.17,12.78ZM55,50.48a.74.74,0,0,1-.74.74c-.24,0-.39-.21-.84-1.16l-2-4.34a1,1,0,0,0-.91-.58h-37a1,1,0,0,0-.91.58l-2.06,4.42c-.41.87-.56,1.08-.8,1.08A.74.74,0,0,1,9,50.48V41a1.48,1.48,0,0,1,1.48-1.48h43A1.48,1.48,0,0,1,55,41Z"/><circle class="cls-8" cx="36.55" cy="19.3" r="1.25"/><circle class="cls-8" cx="32" cy="19.3" r="1.25"/><circle class="cls-8" cx="27.45" cy="19.3" r="1.25"/></g></svg>