<?xml version="1.0" encoding="iso-8859-1"?>
<!-- Generator: Adobe Illustrator 19.0.0, SVG Export Plug-In . SVG Version: 6.00 Build 0)  -->
<svg version="1.1" id="Layer_1" xmlns="http://www.w3.org/2000/svg" xmlns:xlink="http://www.w3.org/1999/xlink" x="0px" y="0px"
	 viewBox="0 0 512 512" style="enable-background:new 0 0 512 512;" xml:space="preserve">
<circle style="fill:#263A7A;" cx="256" cy="256" r="256"/>
<path style="fill:#121149;" d="M510.478,283.932l-74.659-74.659l-40.331,45.003H249.365l-73.13-73.13l-51.962,73.13H65.077
	l2.01,48.912l207.624,208.129C398.088,502.403,497.223,406.057,510.478,283.932z"/>
<rect x="151.673" y="240.226" style="fill:#FFFFFF;" width="207.834" height="31.556"/>
<rect x="256" y="240.226" style="fill:#D0D1D3;" width="103.503" height="31.556"/>
<path style="fill:#FFEDB5;" d="M109.349,305.702H72.763c-4.244,0-7.685-3.441-7.685-7.685v-84.03c0-4.244,3.441-7.685,7.685-7.685
	h36.586c4.244,0,7.687,3.441,7.687,7.685v84.03C117.034,302.259,113.593,305.702,109.349,305.702z"/>
<path style="fill:#E09112;" d="M136.114,318.324H99.53c-4.244,0-7.685-3.441-7.685-7.685V201.364c0-4.244,3.441-7.685,7.685-7.685
	h36.586c4.244,0,7.687,3.441,7.687,7.685v109.275C143.801,314.882,140.36,318.324,136.114,318.324z"/>
<path style="fill:#FFC61B;" d="M169.967,334.102H133.38c-4.244,0-7.685-3.441-7.685-7.685V185.585c0-4.244,3.441-7.685,7.685-7.685
	h36.586c4.244,0,7.687,3.441,7.687,7.685v140.831C177.652,330.661,174.211,334.102,169.967,334.102z"/>
<path style="fill:#FEE187;" d="M393.169,206.298h36.586c4.244,0,7.685,3.441,7.687,7.685v84.03c0,4.244-3.441,7.685-7.685,7.685
	h-36.586c-4.244,0-7.685-3.441-7.685-7.685v-84.03C385.483,209.741,388.925,206.298,393.169,206.298z"/>
<path style="fill:#FF5419;" d="M366.402,193.676h36.586c4.244,0,7.685,3.441,7.687,7.685v109.275c0,4.244-3.441,7.687-7.685,7.687
	h-36.586c-4.244,0-7.685-3.441-7.685-7.685V201.363C358.717,197.118,362.158,193.676,366.402,193.676z"/>
<path style="fill:#EAA22F;" d="M332.552,177.898h36.586c4.244,0,7.685,3.441,7.685,7.685v140.831c0,4.244-3.441,7.687-7.685,7.687
	h-36.586c-4.244,0-7.687-3.441-7.687-7.685V185.585C324.867,181.339,328.307,177.898,332.552,177.898z"/>
<g>
</g>
<g>
</g>
<g>
</g>
<g>
</g>
<g>
</g>
<g>
</g>
<g>
</g>
<g>
</g>
<g>
</g>
<g>
</g>
<g>
</g>
<g>
</g>
<g>
</g>
<g>
</g>
<g>
</g>
</svg>
