<?xml version="1.0" encoding="iso-8859-1"?>
<!-- Generator: Adobe Illustrator 19.0.0, SVG Export Plug-In . SVG Version: 6.00 Build 0)  -->
<svg version="1.1" id="Layer_1" xmlns="http://www.w3.org/2000/svg" xmlns:xlink="http://www.w3.org/1999/xlink" x="0px" y="0px"
	 viewBox="0 0 512 512" style="enable-background:new 0 0 512 512;" xml:space="preserve">
<path style="fill:#F9EBCF;" d="M141.122,258.84c-24.234-24.109-24.234-63.341,0-87.45c5.516-5.49,14.46-5.49,19.976,0l67.925,67.574
	c5.517,5.491,5.516,14.389,0,19.877C204.789,282.949,165.355,282.951,141.122,258.84z"/>
<path style="fill:#FFCC60;" d="M172.088,187.287c-11.311,11.254-11.309,29.494,0,40.746c11.308,11.25,29.645,11.25,40.953,0
	c0.847-0.843,1.61-1.736,2.33-2.653l-40.619-40.41C173.832,185.689,172.934,186.445,172.088,187.287z"/>
<path style="fill:#78B591;" d="M154.064,258.777c-7.612-7.651-20.195-8.746-34.01-4.306c4.42-13.888,3.331-26.535-4.284-34.191
	c-8.561-8.604-23.409-8.916-39.227-2.383c-14.566-10.17-34.72-8.741-47.703,4.309c-12.984,13.052-14.406,33.312-4.288,47.957
	c-6.499,15.901-6.189,30.827,2.373,39.433c7.613,7.652,20.196,8.747,34.011,4.305c-4.418,13.889-3.33,26.538,4.284,34.191
	c7.613,7.653,20.196,8.747,34.012,4.306c-4.419,13.888-3.33,26.536,4.285,34.192c14.17,14.244,45.545,5.8,70.078-18.866
	c24.534-24.664,32.936-56.204,18.766-70.447c-7.613-7.655-20.196-8.75-34.012-4.308
	C162.768,279.081,161.678,266.432,154.064,258.777z"/>
<path style="fill:#619376;" d="M125.853,327.814c-2.076,0-4.151-0.794-5.731-2.382l-68.245-68.604
	c-3.148-3.165-3.135-8.284,0.03-11.432c3.166-3.148,8.285-3.134,11.432,0.03l68.246,68.604c3.148,3.165,3.135,8.283-0.03,11.432
	C129.977,327.03,127.915,327.814,125.853,327.814z"/>
<path style="fill:#EF645E;" d="M187.991,296.659c-13.914,27.067-47.196,37.655-74.191,23.602c-6.144-3.201-8.559-10.789-5.391-16.95
	l38.995-75.868c3.168-6.163,10.718-8.563,16.863-5.365C191.261,236.133,201.905,269.592,187.991,296.659z"/>
<g>
	<path style="fill:#C14616;" d="M131.722,323.54c-1.258,0-2.535-0.295-3.728-0.916l-1.113-0.581
		c-3.96-2.064-5.497-6.945-3.434-10.906c2.064-3.959,6.945-5.496,10.906-3.434l1.113,0.58c3.96,2.064,5.497,6.945,3.434,10.907
		C137.458,321.956,134.641,323.54,131.722,323.54z"/>
	<path style="fill:#C14616;" d="M169.589,248.496c-1.242,0-2.503-0.287-3.684-0.893c-3.972-2.039-5.54-6.911-3.501-10.885
		l0.573-1.115c2.039-3.971,6.909-5.539,10.884-3.501c3.972,2.039,5.54,6.911,3.5,10.885l-0.573,1.115
		C175.356,246.893,172.524,248.496,169.589,248.496z"/>
	<path style="fill:#C14616;" d="M151.553,304.163c-1.255,0-2.529-0.294-3.721-0.912l-1.112-0.579
		c-3.961-2.06-5.505-6.94-3.445-10.901c2.058-3.962,6.937-5.506,10.901-3.446l1.112,0.578c3.962,2.059,5.505,6.94,3.446,10.901
		C157.294,302.574,154.474,304.163,151.553,304.163z"/>
	<path style="fill:#C14616;" d="M166.431,277.965c-1.255,0-2.53-0.294-3.721-0.912l-1.112-0.579
		c-3.962-2.058-5.505-6.94-3.446-10.901c2.059-3.961,6.937-5.505,10.901-3.446l1.112,0.578c3.962,2.059,5.505,6.94,3.446,10.901
		C172.171,276.376,169.351,277.965,166.431,277.965z"/>
</g>
<ellipse style="fill:#EF645E;" cx="374.45" cy="239.574" rx="37.602" ry="37.409"/>
<path style="fill:#78B591;" d="M453.527,373.92c7.9-7.859,9.03-20.849,4.445-35.112c14.336,4.564,27.391,3.439,35.289-4.419
	c8.885-8.838,9.206-24.164,2.464-40.495c10.496-15.037,9.022-35.843-4.449-49.245c-13.471-13.402-34.384-14.87-49.498-4.426
	c-16.415-6.709-31.819-6.389-40.702,2.449c-7.9,7.859-9.031,20.849-4.444,35.113c-14.338-4.562-27.392-3.439-35.292,4.42
	c-7.9,7.86-9.029,20.849-4.445,35.111c-14.335-4.56-27.39-3.437-35.29,4.423c-14.704,14.629-5.986,47.018,19.471,72.342
	c25.457,25.325,58.014,34.001,72.715,19.372c7.9-7.86,9.03-20.847,4.444-35.111C432.571,382.904,445.626,381.778,453.527,373.92z"/>
<path style="fill:#5B8C6F;" d="M390.615,353.323c-2.189,0-4.378-0.838-6.045-2.513c-3.321-3.337-3.307-8.736,0.031-12.057
	l70.812-70.45c3.336-3.323,8.734-3.307,12.057,0.03c3.321,3.337,3.307,8.736-0.031,12.058l-70.811,70.449
	C394.965,352.495,392.789,353.323,390.615,353.323z"/>
<ellipse style="fill:#FFAB5F;" cx="110.342" cy="330.909" rx="37.603" ry="37.409"/>
<path style="fill:#A5BC79;" d="M355.168,226.985c-8.051-8.011-21.359-9.156-35.97-4.508c4.675-14.537,3.523-27.774-4.53-35.784
	c-9.053-9.007-24.753-9.335-41.483-2.497c-15.404-10.645-36.718-9.148-50.448,4.512c-13.73,13.658-15.234,34.864-4.535,50.19
	c-6.872,16.644-6.544,32.263,2.51,41.271c8.052,8.009,21.358,9.155,35.969,4.506c-4.674,14.537-3.521,27.775,4.53,35.786
	c8.052,8.009,21.359,9.155,35.97,4.507c-4.674,14.538-3.522,27.777,4.531,35.786c14.984,14.91,48.166,6.07,74.109-19.742
	c25.945-25.815,34.831-58.828,19.846-73.733c-8.052-8.011-21.358-9.156-35.97-4.508
	C364.372,248.232,363.218,234.994,355.168,226.985z"/>
<path style="fill:#EF645E;" d="M228.338,120.844c-21.576,21.465-56.684,21.465-78.259-0.001c-4.911-4.886-4.911-12.808,0-17.692
	l60.471-60.164c4.913-4.888,12.876-4.887,17.786,0C249.912,64.452,249.914,99.378,228.338,120.844z"/>
<ellipse style="fill:#FFAB5F;" cx="317.858" cy="121.699" rx="26.543" ry="26.405"/>
<path style="fill:#C14616;" d="M377.851,18.631c3.675,3.658,3.675,9.586,0,13.243l-15.972,15.891c-3.676,3.656-9.634,3.655-13.311,0
	l-15.971-15.891c-3.676-3.657-3.676-9.585,0-13.243l15.971-15.89c3.677-3.656,9.635-3.655,13.311,0L377.851,18.631z"/>
<path style="fill:#A5BC79;" d="M100.437,138.606c2.972,2.956,2.972,7.749,0,10.703l-12.909,12.844c-2.97,2.955-7.786,2.953-10.756,0
	l-12.908-12.844c-2.971-2.954-2.971-7.747,0-10.703l12.909-12.84c2.971-2.956,7.787-2.955,10.756,0L100.437,138.606z"/>
<path style="fill:#C14616;" d="M436.463,162.832c2.971,2.956,2.971,7.747,0,10.702l-12.909,12.843c-2.97,2.956-7.786,2.954-10.756,0
	l-12.909-12.843c-2.971-2.955-2.971-7.746,0-10.702l12.909-12.841c2.972-2.956,7.788-2.955,10.756,0L436.463,162.832z"/>
<path style="fill:#899B62;" d="M325.332,298.862c-2.063,0-4.124-0.785-5.702-2.354l-72.171-71.803
	c-3.165-3.148-3.179-8.267-0.029-11.432c3.149-3.164,8.267-3.178,11.432-0.028l72.171,71.803c3.165,3.149,3.179,8.267,0.029,11.432
	C329.484,298.067,327.409,298.862,325.332,298.862z"/>
<path style="fill:#EF645E;" d="M79.887,330.835c4.611,4.588,4.611,12.025,0,16.612L59.851,367.38
	c-4.611,4.588-12.086,4.586-16.696,0l-20.036-19.932c-4.61-4.588-4.61-12.025,0-16.612l20.036-19.934
	c4.612-4.59,12.086-4.586,16.696,0L79.887,330.835z"/>
<path style="fill:#C14616;" d="M215.765,341.953c-21.576,21.465-56.683,21.465-78.259,0c-4.911-4.886-4.911-12.808,0-17.693
	l60.471-60.164c4.912-4.887,12.876-4.886,17.786,0C237.339,285.561,237.343,320.49,215.765,341.953z"/>
<g>
	<ellipse style="fill:#FFAB5F;" cx="316.061" cy="300.481" rx="32.285" ry="32.12"/>
	<ellipse style="fill:#FFAB5F;" cx="453.162" cy="342.497" rx="26.541" ry="26.405"/>
</g>
<path style="fill:#EF645E;" d="M386.53,323.113c5.519,5.491,5.519,14.393,0,19.885l-23.985,23.86c-5.518,5.492-14.467,5.49-19.987,0
	l-23.984-23.86c-5.518-5.492-5.518-14.395,0-19.885l23.984-23.862c5.521-5.49,14.469-5.488,19.987,0L386.53,323.113z"/>
<g>
	<path style="fill:#C14616;" d="M168.717,129.777c-2.062,0-4.122-0.783-5.7-2.35l-0.889-0.885
		c-3.166-3.148-3.182-8.266-0.033-11.432c3.147-3.166,8.266-3.181,11.432-0.034l0.889,0.885c3.166,3.148,3.182,8.266,0.033,11.432
		C172.87,128.981,170.794,129.777,168.717,129.777z"/>
	<path style="fill:#C14616;" d="M227.855,70.057c-2.075,0-4.15-0.794-5.729-2.381c-3.149-3.165-3.138-8.283,0.027-11.432l0.89-0.885
		c3.163-3.152,8.282-3.139,11.432,0.026c3.149,3.165,3.138,8.283-0.027,11.432l-0.89,0.885
		C231.981,69.272,229.918,70.057,227.855,70.057z"/>
	<path style="fill:#C14616;" d="M193.617,117.391c-2.062,0-4.122-0.784-5.7-2.351l-0.889-0.884
		c-3.166-3.149-3.182-8.266-0.033-11.432c3.147-3.166,8.266-3.182,11.432-0.034l0.889,0.884c3.166,3.149,3.182,8.266,0.033,11.432
		C197.77,116.595,195.694,117.391,193.617,117.391z"/>
	<path style="fill:#C14616;" d="M215.849,97.042c-2.065,0-4.128-0.785-5.706-2.357l-0.89-0.887
		c-3.163-3.151-3.171-8.269-0.02-11.432c3.15-3.163,8.269-3.172,11.432-0.021l0.889,0.887c3.163,3.152,3.172,8.269,0.021,11.432
		C219.996,96.249,217.922,97.042,215.849,97.042z"/>
</g>
<g>
	<path style="fill:#A03615;" d="M156.146,350.885c-2.062,0-4.122-0.783-5.7-2.35l-0.89-0.885c-3.166-3.148-3.181-8.265-0.033-11.432
		c3.147-3.165,8.266-3.181,11.432-0.034l0.889,0.885c3.166,3.148,3.182,8.266,0.033,11.432
		C160.299,350.091,158.222,350.885,156.146,350.885z"/>
	<path style="fill:#A03615;" d="M215.283,291.165c-2.075,0-4.15-0.794-5.73-2.381c-3.149-3.165-3.137-8.283,0.027-11.432
		l0.889-0.885c3.163-3.152,8.282-3.14,11.432,0.026c3.149,3.165,3.137,8.283-0.027,11.432l-0.89,0.885
		C219.409,290.38,217.345,291.165,215.283,291.165z"/>
	<path style="fill:#A03615;" d="M181.046,338.5c-2.063,0-4.125-0.785-5.703-2.355l-0.89-0.885c-3.165-3.15-3.176-8.267-0.027-11.432
		c3.15-3.162,8.268-3.176,11.432-0.026l0.889,0.885c3.165,3.15,3.178,8.267,0.027,11.432
		C185.196,337.705,183.121,338.5,181.046,338.5z"/>
	<path style="fill:#A03615;" d="M203.278,318.148c-2.063,0-4.124-0.783-5.701-2.352l-0.889-0.885
		c-3.166-3.148-3.179-8.267-0.03-11.432c3.148-3.167,8.267-3.181,11.432-0.03l0.889,0.885c3.166,3.148,3.179,8.267,0.03,11.432
		C207.429,317.355,205.353,318.148,203.278,318.148z"/>
</g>
<path style="fill:#FFFFFF;" d="M236.911,356.727c-24.234-24.111-24.234-63.34,0-87.452c5.516-5.488,14.46-5.488,19.976,0
	l67.925,67.576c5.517,5.49,5.516,14.389,0,19.876C300.578,380.837,261.144,380.838,236.911,356.727z"/>
<path style="fill:#FFCC60;" d="M267.877,285.174c-11.311,11.255-11.309,29.495,0,40.747c11.307,11.25,29.645,11.25,40.953,0
	c0.846-0.844,1.608-1.736,2.33-2.654l-40.62-40.409C269.62,283.575,268.722,284.333,267.877,285.174z"/>
<path style="fill:#F9EBCF;" d="M152.485,482.181c-34.73,0-68.307-12.408-94.543-34.939c-26.064-22.381-43.261-53.295-48.424-87.05
	c-0.553-3.604,0.506-7.27,2.895-10.036c2.39-2.767,5.872-4.358,9.538-4.358h462.296c3.667,0,7.148,1.59,9.538,4.358
	c2.389,2.766,3.446,6.432,2.895,10.036c-5.163,33.755-22.36,64.67-48.424,87.05c-26.237,22.531-59.815,34.939-94.544,34.939H152.485
	z"/>
<g>
	<path style="fill:#DDB690;" d="M132.451,372.763H12.027c1.354,5.487,3.039,10.872,5.024,16.135h115.4
		c4.456,0,8.068-3.613,8.068-8.068C140.518,376.375,136.907,372.763,132.451,372.763z"/>
	<path style="fill:#DDB690;" d="M104.824,410.3h-77.61c3.257,5.607,6.893,11,10.892,16.135h66.718c4.455,0,8.068-3.61,8.068-8.068
		C112.892,413.912,109.28,410.3,104.824,410.3z"/>
</g>
<path style="opacity:0.1;enable-background:new    ;" d="M54.652,360.192c-0.553-3.604,0.506-7.27,2.895-10.036
	c2.39-2.767,5.872-4.358,9.538-4.358H21.952c-3.667,0-7.149,1.59-9.538,4.358c-2.39,2.766-3.447,6.432-2.895,10.036
	c5.163,33.755,22.36,64.67,48.424,87.05c26.237,22.531,59.814,34.939,94.543,34.939h45.133c-34.73,0-68.306-12.408-94.543-34.939
	C77.011,424.861,59.814,393.946,54.652,360.192z"/>
<path style="fill:#A5BC79;" d="M390.272,501.322c0,5.895-4.779,10.678-10.675,10.678H126.6c-5.895,0-10.675-4.781-10.675-10.678
	v-9.61c0-5.897,4.779-10.678,10.675-10.678h252.997c5.895,0,10.675,4.78,10.675,10.678V501.322z"/>
<path style="opacity:0.1;enable-background:new    ;" d="M160.899,501.322v-9.61c0-5.897,4.779-10.678,10.675-10.678h-44.972
	c-5.895,0-10.675,4.78-10.675,10.678v9.61c0,5.895,4.779,10.678,10.675,10.678h44.972C165.678,512,160.899,507.218,160.899,501.322z
	"/>
<g>
</g>
<g>
</g>
<g>
</g>
<g>
</g>
<g>
</g>
<g>
</g>
<g>
</g>
<g>
</g>
<g>
</g>
<g>
</g>
<g>
</g>
<g>
</g>
<g>
</g>
<g>
</g>
<g>
</g>
</svg>
