<?xml version="1.0" encoding="iso-8859-1"?>
<!-- Generator: Adobe Illustrator 19.0.0, SVG Export Plug-In . SVG Version: 6.00 Build 0)  -->
<svg version="1.1" id="Layer_1" xmlns="http://www.w3.org/2000/svg" xmlns:xlink="http://www.w3.org/1999/xlink" x="0px" y="0px"
	 viewBox="0 0 512 512" style="enable-background:new 0 0 512 512;" xml:space="preserve">
<path style="fill:#ECF0F1;" d="M470.583,103.174l-0.007-0.007c-9.284-9.284-24.336-9.284-33.62,0c9.284-9.284,9.284-24.336,0-33.62
	l0,0c-11.954-11.954-32.212-7.963-38.739,7.632c-4.713,11.259-9.425,22.517-14.135,33.774l22.544,22.544l22.551,22.551
	c11.257-4.71,22.515-9.423,33.774-14.135C478.545,135.387,482.537,115.127,470.583,103.174z"/>
<g>
	<path style="fill:#F8A805;" d="M437.988,364.873c8.323-24.637,2.863-51.84-14.34-71.342
		c-44.852-50.845-145.794-142.78-227.595-142.78c-82.83,0-149.909,67.437-149.329,150.401
		c0.573,81.917,67.932,148.544,149.85,148.265c41.526-0.142,79.053-17.239,106.037-44.723l121.709,0.636L437.988,364.873z"/>
	<path style="fill:#F8A805;" d="M423.253,162.129l6.002-6.002L384,110.873l-3.395,3.395c-26.603,26.603-64.875,40.588-99.97,54.139
		c-9.449,3.648-18.268,9.412-25.73,17.294c-25.761,27.212-25.484,70.464,0.605,97.361c27.424,28.274,72.58,28.535,100.333,0.784
		c7.358-7.358,12.743-15.939,16.158-25.088C384.649,224.87,397.676,187.706,423.253,162.129z"/>
</g>
<path style="fill:#ECF0F1;" d="M429.181,449.418H82.82c-24.358,0-46.374-14.516-55.969-36.906l-16.183-27.094h490.667
	l-16.183,27.094C475.555,434.901,453.54,449.418,429.181,449.418z"/>
<g>
	<path style="fill:#231F20;" d="M196.053,182.751c-31.495,0-61.065,12.308-83.259,34.658c-22.192,22.348-34.292,52.01-34.071,83.521
		c0.041,5.866,4.809,10.592,10.665,10.592c0.025,0,0.051,0,0.076,0c5.891-0.042,10.634-4.85,10.592-10.741
		c-0.18-25.785,9.719-50.054,27.876-68.338c18.159-18.287,42.352-28.357,68.122-28.357c5.891,0,10.667-4.777,10.667-10.667
		S201.944,182.751,196.053,182.751z"/>
	<path style="fill:#231F20;" d="M278.479,260.783c7.308,7.534,17.104,11.682,27.584,11.682c10.256,0,19.898-3.994,27.151-11.247
		c3.93-3.931,6.892-8.523,8.809-13.659l1.792-4.813c3.47-9.327,7.059-18.971,11.001-28.623c2.227-5.454-0.388-11.68-5.843-13.907
		c-5.454-2.229-11.68,0.388-13.907,5.843c-4.068,9.963-7.716,19.766-11.243,29.244l-1.789,4.803
		c-0.838,2.245-2.153,4.274-3.906,6.027c-3.222,3.222-7.508,4.998-12.066,4.998c-4.658,0-9.017-1.847-12.271-5.203
		c-4.102-4.228-10.855-4.331-15.084-0.229C274.48,249.802,274.378,256.556,278.479,260.783z"/>
	<path style="fill:#231F20;" d="M478.118,95.623c-6.314-6.314-14.646-9.874-23.542-10.078c-0.204-8.896-3.765-17.228-10.078-23.541
		c-8.133-8.131-19.724-11.662-31.008-9.438c-11.284,2.222-20.672,9.884-25.114,20.494l-13.207,31.558l-2.107,2.107
		c-23.83,23.831-58.284,37.1-91.603,49.933l-4.667,1.799c-1.333,0.515-2.645,1.069-3.942,1.649
		c-27.856-13.299-53.551-20.02-76.797-20.02c-42.949,0-83.269,16.784-113.534,47.262c-30.262,30.474-46.763,70.918-46.463,113.883
		c0.186,26.532,6.9,51.534,18.573,73.523H10.667c-3.839,0-7.381,2.064-9.277,5.402c-1.895,3.339-1.85,7.439,0.118,10.734
		l15.833,26.508c11.442,25.961,37.06,42.689,65.477,42.689H429.18c28.418,0,54.036-16.731,65.478-42.69l15.831-26.507
		c1.969-3.296,2.015-7.396,0.119-10.734c-1.895-3.338-5.438-5.402-9.277-5.402h-55.425l2.183-6.465
		c9.518-28.174,3.216-59.522-16.447-81.812c-12.736-14.438-27.238-29.167-42.43-43.263c10.443-27.338,22.256-54.217,41.579-73.539
		l4.707-4.707l31.567-13.212c10.61-4.441,18.271-13.829,20.494-25.114c2.223-11.283-1.306-22.876-9.438-31.008L478.118,95.623z
		 M417.612,73.498c4.358-0.862,8.659,0.45,11.801,3.591c2.476,2.475,3.839,5.766,3.839,9.267c0,3.501-1.363,6.793-3.84,9.267
		c-2.083,2.083-3.124,4.813-3.124,7.542s1.041,5.459,3.124,7.542c4.165,4.164,10.919,4.164,15.086,0
		c2.476-2.476,5.766-3.84,9.267-3.84s6.791,1.363,9.267,3.84l0.007,0.007c3.141,3.14,4.45,7.442,3.593,11.801
		c-0.859,4.358-3.701,7.842-7.801,9.557l-27.172,11.373l-34.977-34.977l11.372-27.172C409.77,77.199,413.254,74.356,417.612,73.498z
		 M383.91,125.867l30.274,30.274c-25.021,25.911-38.476,62.07-50.374,94.047l-1.803,4.839c-2.991,8.013-7.603,15.172-13.708,21.276
		c-11.293,11.294-26.273,17.495-42.227,17.495c-0.156,0-0.314,0-0.47-0.002c-16.125-0.123-31.196-6.572-42.436-18.16
		c-21.964-22.645-22.195-59.702-0.515-82.603c6.188-6.535,13.532-11.473,21.826-14.676l4.65-1.793
		C321.143,164.235,357.213,150.342,383.91,125.867z M57.389,301.078c-0.26-37.236,14.041-72.289,40.267-98.7
		c26.229-26.414,61.174-40.96,98.397-40.96c17.707,0,36.548,4.714,55.614,12.573c-1.543,1.402-3.058,2.845-4.509,4.377
		c-14.358,15.168-22.193,35.127-22.062,56.199c0.132,21.07,8.213,40.93,22.755,55.923c15.25,15.724,35.702,24.475,57.587,24.642
		c0.213,0.001,0.425,0.002,0.638,0.002c21.65,0,41.981-8.418,57.308-23.744c7.695-7.696,13.621-16.652,17.689-26.622
		c13.335,12.749,25.084,25.06,34.575,35.82c14.628,16.583,19.316,39.908,12.234,60.87v0.001l-4.491,13.293H79.301
		C65.61,353.445,57.578,328.177,57.389,301.078z M475.347,408.31c-7.925,18.492-26.046,30.441-46.165,30.441H82.82
		c-20.118,0-38.24-11.949-46.165-30.441c-0.187-0.436-7.191-12.226-7.191-12.226h453.076
		C482.538,396.084,475.533,407.874,475.347,408.31z"/>
</g>
<g>
</g>
<g>
</g>
<g>
</g>
<g>
</g>
<g>
</g>
<g>
</g>
<g>
</g>
<g>
</g>
<g>
</g>
<g>
</g>
<g>
</g>
<g>
</g>
<g>
</g>
<g>
</g>
<g>
</g>
</svg>
